# xmcd
#
# Track frame offsets:
#	182
#	19862
#	39520
#	54495
#	70242
#	90070
#	106445
#	120522
#	140260
#	155780
#	180757
#	204935
#
# Disc length: 2915 seconds
#
# Revision: 0
# Processed by: cddbd v1.4PL0 Copyright (c) Steve Scherf et al.
# Submitted via: EasyCDDAExtractor 4.5.2.1
#
DISCID=900b610c
DTITLE=Junior Wells - It's My Life, Baby!
DYEAR=1900
DGENRE=Blues
TTITLE0=It's My Life, Baby
TTITLE1=It's So Hard To Be Lonely
TTITLE2=Country Girl
TTITLE3=You Lied To Me
TTITLE4=Stormy Monday Blues
TTITLE5=Shake It Baby
TTITLE6=Checking On My Baby
TTITLE7=Early In The Morning
TTITLE8=(I Got A) Stomach Ache
TTITLE9=Look How Baby
TTITLE10=Slow, Slow
TTITLE11=Everything's Going To Be Alright
EXTD=
EXTT0=
EXTT1=
EXTT2=
EXTT3=
EXTT4=
EXTT5=
EXTT6=
EXTT7=
EXTT8=
EXTT9=
EXTT10=
EXTT11=
PLAYORDER=
